<svg width="22" height="16" viewBox="0 0 22 16" fill="none" xmlns="http://www.w3.org/2000/svg">
<path d="M9.58396 6.58691C9.20868 6.96193 8.99775 7.47067 8.99756 8.00121C8.99737 8.53175 9.20795 9.04063 9.58296 9.41591C9.95798 9.7912 10.4667 10.0021 10.9973 10.0023C11.5278 10.0025 12.0367 9.79193 12.412 9.41691" stroke="#353849" stroke-width="1.5" stroke-linecap="round" stroke-linejoin="round"/>
<path d="M8.363 1.36506C9.22042 1.11978 10.1082 0.9969 11 1.00006C15 1.00006 18.333 3.33306 21 8.00006C20.222 9.36106 19.388 10.5241 18.497 11.4881M16.357 13.3491C14.726 14.4491 12.942 15.0001 11 15.0001C7 15.0001 3.667 12.6671 1 8.00006C2.369 5.60506 3.913 3.82506 5.632 2.65906" stroke="#353849" stroke-width="1.5" stroke-linecap="round" stroke-linejoin="round"/>
</svg>